/* XPM */
static char *result[] = {
/* columns rows colors chars-per-pixel */
"75 75 6 1 ",
"  c #D82800",
". c #DE7050",
"X c #FC9838",
"o c #DBC28E",
"O c gray99",
"+ c None",
/* pixels */
"+++++++++++++++++++++++++++++++++++++++++++++++++++++++++++++++++++++++++++",
"+++++++++++++++++++++++++++++++++++++++++++++++++++++++++++++++++++++++++++",
"+++++++++++++++++++++++++++++++++++++++++++++++++++++++++++++++++++++++++++",
"+++++++++++++++++++++++++++++++++XXXXXXX+++++++++++++++++++++++++++++++++++",
"+++++++++++++++++++++++++++++++++XXXXXXX+++++++++++++++++++++++++++++++++++",
"+++++++++++++++++++++++++++++XXXXXXXXXXXXXXX+++++++++++++++++++++++++++++++",
"+++++++++++++++++++++++++++++XXXXXXXXXXXXXXX+++++++++++++++++++++++++++++++",
"++++++++++++++++++++++++++XXXXXXXXXXXXXX..     ++++++++++++++++++++++++++++",
"++++++++++++++++++++++++++XXXXXXXXXXXXXX..     ++++++++++++++++++++++++++++",
"++++++++++++++++++++++++XXXXXXXXXXXXXX..         ++++++++++++++++++++++++++",
"++++++++++++++++++++++++XXXXXXXXXXXXXX..         ++++++++++++++++++++++++++",
"++++++++++++++++++++++XXXXXXXXXXXXXXXX             ++++++++++++++++++++++++",
"++++++++++++++++++++++XXXXXXXXXXXXXXXX             ++++++++++++++++++++++++",
"++++++++++++++++++++XXXXXXXXXXXXXXXXXX               ++++++++++++++++++++++",
"++++++++++++++++++++XXXXXXXXXXXXXXXXXX               ++++++++++++++++++++++",
"+++++++++++++++++XXXXXXXXXXXXXXXXXXXXX                  +++++++++++++++++++",
"+++++++++++++++++XXXXXXXXXXXXXXXXXXXXX                  +++++++++++++++++++",
"+++++++++++++++XXXXXXXXXXXXXXXXXXXXXXX                  +++++++++++++++++++",
"+++++++++++++++XXXXXXXXXXXXXXXXXXXXXXX                  +++++++++++++++++++",
"+++++++++++++++XXXXXXXXXXXXXXXXXXXXXXX..             ...XX+++++++++++++++++",
"+++++++++++++++XXXXXXXXXXXXXXXXXXXXXXX..             ...XX+++++++++++++++++",
"+++++++++++++XXXXXXXXXXXXXXXXXXXXXXXXXXX..         ..XXXXX+++++++++++++++++",
"+++++++++++++XXXXXXXXXXXXXXXXXXXXXXXXXXX..         ..XXXXX+++++++++++++++++",
"+++++++++++++XXXXXXXXXXXXXXXXXXXXXXXXXXXXXXXXXXXXXXXXXXXXXXX+++++++++++++++",
"+++++++++++++XXXXXXXXXXXXXXXXXXXXXXXXXXXXXXXXXXXXXXXXXXXXXXX+++++++++++++++",
"+++++++++++XXXXXXXXXXXXXXXXXXXXXXXXXXXXXXXXXXXXXXXXXXXXXXXXX+++++++++++++++",
"+++++++++++XXXXXXXXXXXXXXXXXXXXXXXXXXXXXXXXXXXXXXXXXXXXXXXXX+++++++++++++++",
"+++++++++++XXXXXX...    ..XXXXXXXXXXXXXXXXXXXXXXXXXXXXXXXXXXXX+++++++++++++",
"+++++++++++XXXXXX...    ..XXXXXXXXXXXXXXXXXXXXXXXXXXXXXXXXXXXX+++++++++++++",
"++++++++XXXXXXX              XXXXXXXXXXXXXXXXXXXXXXXXXXXXXXXXXXXX++++++++++",
"++++++++XXXXXXX              XXXXXXXXXXXXXXXXXXXXXXXXXXXXXXXXXXXX++++++++++",
"++++++++XXXXX..              ..XXXXXXXXXXXXXXXXXXXXXXXXXXXXXXXXXX++++++++++",
"++++++++XXXXX..              ..XXXXXXXXXXXXXXXXXXXXXXXXXXXXXXXXXX++++++++++",
"++++++XXXXXXX                  XXXXXXXXXXXXXXXXXXXXXX...    ..XXXXX++++++++",
"++++++XXXXXXX                  XXXXXXXXXXXXXXXXXXXXXX...    ..XXXXX++++++++",
"++++++XXXXXXX                  XXXXXXXXXXXXXXXXXXXXXX         ...XX++++++++",
"++++++XXXXXXX                  XXXXXXXXXXXXXXXXXXXXXX         ...XX++++++++",
"++++++XXXXXXX..              ..XXXXXXXXXXXXXXXXXXXXXX            XX++++++++",
"++++++XXXXXXX..              ..XXXXXXXXXXXXXXXXXXXXXX            XX++++++++",
"++++XXXXXXXXXXX              XXXXXXXXXXXXXXXXXXXXXXXX            XXXX++++++",
"++++XXXXXXXXXXX              XXXXXXXXXXXXXXXXXXXXXXXX            XXXX++++++",
"++++XXXXXXXXXXXXX...    ..XXXXXXXXXXXXXXXXXXXXXXXXXXX...         XXXX++++++",
"++++XXXXXXXXXXXXX...    ..XXXXXXXXXXXXXXXXXXXXXXXXXXX...         XXXX++++++",
"++++..XXXXXXXXXXXXXXXXXX.........................XXXXXXX      ...XX..++++++",
"++++..XXXXXXXXXXXXXXXXXX.........................XXXXXXX      ...XX..++++++",
"++++++.....XXXXXXXXX.................................XXXXXXXXX.....++++++++",
"++++++.....XXXXXXXXX.................................XXXXXXXXX.....++++++++",
"++++++.............................................................++++++++",
"++++++.............................................................++++++++",
"++++++++..................ooo  OOoooooooOO  ooo..................++++++++++",
"++++++++..................ooo  OOoooooooOO  ooo..................++++++++++",
"+++++++++++++.........ooooooo  XXoooooooXX  ooooooo.........+++++++++++++++",
"+++++++++++++.........ooooooo  XXoooooooXX  ooooooo.........+++++++++++++++",
"++++++++++++++++++++ooOOOOOOO    OOOOOOO    OOOOOOOoo++++++++++++++++++++++",
"++++++++++++++++++++ooOOOOOOO    OOOOOOO    OOOOOOOoo++++++++++++++++++++++",
"++++++++++++++++++++OOOOOOooooo  OOOOOOO  oooooOOOOOO++++++++++++++++++++++",
"++++++++++++++++++++OOOOOOooooo  OOOOOOO  oooooOOOOOO++++++++++++++++++++++",
"++++++++++++++++++++OOOOOOOOOOOOOOOOOOOOOOOOOOOXXOOOO++++++++++++++++++++++",
"++++++++++++++++++++OOOOOOOOOOOOOOOOOOOOOOOOOOOXXOOOO++++++++++++++++++++++",
"++++++++++++++++++++OOOOOOOOOOOOOOOOOOOOOOOOOOOXXOOOO++++++++++++++++++++++",
"++++++++++++++++++++OOOOOOOOOOOOOOOOOOOOOOOOOOOXXOOOO++++++++++++++++++++++",
"++++++++++++++++++++OOOOOOOOOOOOOOOOOOOOOOOOOOOXXOOOO++++++++++++++++++++++",
"++++++++++++++++++++OOOOOOOOOOOOOOOOOOOOOOOOOOOXXOOOO++++++++++++++++++++++",
"++++++++++++++++++++++OOOOOOOOOOOOOOOOOOOOOOXXXOOOO++++++++++++++++++++++++",
"++++++++++++++++++++++OOOOOOOOOOOOOOOOOOOOOOXXXOOOO++++++++++++++++++++++++",
"++++++++++++++++++++++OOOOOOOOOOOOOOOOOOOOOOXXXOOOO++++++++++++++++++++++++",
"++++++++++++++++++++++OOOOOOOOOOOOOOOOOOOOOOXXXOOOO++++++++++++++++++++++++",
"++++++++++++++++++++++++OOOOOOOOOOOOOOOOOOXXOOOOO++++++++++++++++++++++++++",
"++++++++++++++++++++++++OOOOOOOOOOOOOOOOOOXXOOOOO++++++++++++++++++++++++++",
"+++++++++++++++++++++++++++++OOOOOOOOOOOOOOO+++++++++++++++++++++++++++++++",
"+++++++++++++++++++++++++++++OOOOOOOOOOOOOOO+++++++++++++++++++++++++++++++",
"+++++++++++++++++++++++++++++++++++++++++++++++++++++++++++++++++++++++++++",
"+++++++++++++++++++++++++++++++++++++++++++++++++++++++++++++++++++++++++++",
"+++++++++++++++++++++++++++++++++++++++++++++++++++++++++++++++++++++++++++",
"+++++++++++++++++++++++++++++++++++++++++++++++++++++++++++++++++++++++++++"
};
