/* XPM */
static char *result[] = {
/* columns rows colors chars-per-pixel */
"75 75 256 2 ",
"   c #3B1A03",
".  c #2E1100",
"X  c #3E230E",
"o  c #393537",
"O  c #451D05",
"+  c #401E12",
"@  c #4A250B",
"#  c #4C2A0B",
"$  c #472607",
"%  c #5B2B05",
"&  c #542B0C",
"*  c #5D2D0B",
"=  c #562706",
"-  c #5C320D",
";  c #593309",
":  c #4B2B13",
">  c #452D1B",
",  c #472A16",
"<  c #532C12",
"1  c #5B2D12",
"2  c #552A18",
"3  c #4A3319",
"4  c #553215",
"5  c #5C3313",
"6  c #55341A",
"7  c #5D351A",
"8  c #553C1E",
"9  c #5B3B1C",
"0  c #5D3912",
"q  c #4C310D",
"w  c #622C0D",
"e  c #622B05",
"r  c #65320C",
"t  c #6A350E",
"y  c #65390C",
"u  c #632D13",
"i  c #662E1A",
"p  c #643413",
"a  c #6A3515",
"s  c #643B15",
"d  c #6C3B14",
"f  c #64331B",
"g  c #6A341B",
"h  c #643B1A",
"j  c #6B3C1A",
"k  c #723D1C",
"l  c #723B15",
"z  c #753C0F",
"x  c #4A3625",
"c  c #553B22",
"v  c #583A28",
"b  c #4F382F",
"n  c #683A22",
"m  c #733D24",
"M  c #5E411E",
"N  c #6C441E",
"B  c #674119",
"V  c #74421C",
"C  c #78451C",
"Z  c #7D541C",
"A  c #5A4229",
"S  c #5A4436",
"D  c #634324",
"F  c #6C4423",
"G  c #6B4B2B",
"H  c #684828",
"J  c #734324",
"K  c #7D4922",
"L  c #724C2C",
"P  c #7B4B2A",
"I  c #784627",
"U  c #78532A",
"Y  c #664A37",
"T  c #794C34",
"R  c #695337",
"E  c #745333",
"W  c #7A5639",
"Q  c #6C5329",
"!  c #77643A",
"~  c #4A4C4D",
"^  c #484646",
"/  c #574A45",
"(  c #4B4D52",
")  c #585859",
"_  c #535253",
"`  c #6C5445",
"'  c #745C4A",
"]  c #755A45",
"[  c #655A58",
"{  c #634E42",
"}  c #7D6349",
"|  c #786355",
" . c #5B5D64",
".. c #5D6163",
"X. c #676467",
"o. c #756D67",
"O. c #77716B",
"+. c #7B7575",
"@. c #726E72",
"#. c #5C605F",
"$. c #84541E",
"%. c #814B24",
"&. c #834D2C",
"*. c #8B5C25",
"=. c #84532C",
"-. c #855B2C",
";. c #8C5C2B",
":. c #875627",
">. c #925E2C",
",. c #975E27",
"<. c #8B5C32",
"1. c #865935",
"2. c #945E33",
"3. c #814F36",
"4. c #8C632A",
"5. c #936325",
"6. c #94632C",
"7. c #9A642C",
"8. c #99682C",
"9. c #8D6334",
"0. c #8C643B",
"q. c #8A6739",
"w. c #946333",
"e. c #9B6533",
"r. c #956A35",
"t. c #9B6A34",
"y. c #93643A",
"u. c #9A653A",
"i. c #946A3B",
"p. c #9C6B3B",
"a. c #9D733C",
"s. c #997238",
"d. c #8E7233",
"f. c #A3662E",
"g. c #A26E3C",
"h. c #A36A35",
"j. c #A3733C",
"k. c #A6753B",
"l. c #B2753F",
"z. c #855B43",
"x. c #826245",
"c. c #84654A",
"v. c #8A6848",
"b. c #9B6C43",
"n. c #956A46",
"m. c #9B724B",
"M. c #987446",
"N. c #866A52",
"B. c #9A7656",
"V. c #917050",
"C. c #A26D44",
"Z. c #A16741",
"A. c #A47343",
"S. c #A4734B",
"D. c #AC7C4B",
"F. c #A77A47",
"G. c #A87A55",
"H. c #B17E53",
"J. c #B37E4D",
"K. c #8C796E",
"L. c #A77D62",
"P. c #A9824C",
"I. c #B2844C",
"U. c #AC8452",
"Y. c #AA8558",
"T. c #B38454",
"R. c #BC8B5C",
"E. c #B58858",
"W. c #B9935C",
"Q. c #AD9358",
"!. c #9A887C",
"~. c #8C8176",
"^. c #B78865",
"/. c #BC9464",
"(. c #BA9569",
"). c #BA9974",
"_. c #A98D70",
"`. c #BDA178",
"'. c #9C804A",
"]. c #C3925B",
"[. c #C08A4C",
"{. c #C59868",
"}. c #C69C77",
"|. c #C9956D",
" X c #C8A26A",
".X c #C9A777",
"XX c #D6A979",
"oX c #D8B37B",
"OX c #D3A16E",
"+X c #E2B07D",
"@X c #8D8B89",
"#X c #968D89",
"$X c #95928C",
"%X c #969494",
"&X c #918F96",
"*X c #A79588",
"=X c #A69C98",
"-X c #B19B8B",
";X c #B9A388",
":X c #B2A398",
">X c #B7AAA6",
",X c #BAB5AB",
"<X c #B9BABA",
"1X c #B8B6B7",
"2X c #AAA8AD",
"3X c #9E9DA2",
"4X c #C7A686",
"5X c #D3AC83",
"6X c #D7AC87",
"7X c #D4B284",
"8X c #DBB48C",
"9X c #DDBB8C",
"0X c #D9B686",
"qX c #DDBB94",
"wX c #D8B694",
"eX c #CBAD93",
"rX c #E3BB8D",
"tX c #E4B788",
"yX c #E3BC94",
"uX c #E6BB96",
"iX c #F1BE93",
"pX c #C7B6A9",
"aX c #C4BDB4",
"sX c #D2B9A8",
"dX c #D5A98D",
"fX c #E4C29B",
"gX c #E5C395",
"hX c #EBC491",
"jX c #CAC2B8",
"kX c #D2C6BC",
"lX c #D8C7B9",
"zX c #DAC1A3",
"xX c #ECCAAB",
"cX c #DEC293",
"vX c #BABBC4",
"bX c #CBC7C7",
"nX c #DDCEC4",
"mX c #D5CAC6",
"MX c #DDD2C8",
"NX c #CCD3D6",
"BX c #D6D7D7",
"VX c #CECBD4",
"CX c #E1CEC8",
"ZX c #E4D3CB",
"AX c #E7D5C8",
"SX c #EAD7D0",
"DX c #EFE1D7",
"FX c #D5D9E2",
"GX c #FDF4ED",
"HX c #FEFBF5",
"JX c #FDFDFD",
"KX c #F9F7F8",
"LX c #F1E9E7",
"PX c #E4DBE0",
"IX c #C9BFC0",
"UX c None",
/* pixels */
"UXUXUXUXUXUXUXUXUXUXUXUXUXUXUXUXUXUXUXUXUXUXUXUXUXUXUXUXUXUXUXUXUXUXUXUXUXUXUXUXUXUXUXUXUXUXUXUXUXUXUXUXUXUXUXUXUXUXUXUXUXUXUXUXUXUXUXUXUXUXUXUXUXUXUX",
"UXUXUXUXUXUXUXUXUXUXUXUXUXUXUXUXUXUXUXUXUXUXUXUXUXUXUXUXUXUXUXUXUXUXUXUXUXUXUXUXUXUXUXUXUXUXUXUXUXUXUXUXUXUXUXUXUXUXUXUXUXUXUXUXUXUXUXUXUXUXUXUXUXUXUX",
"UXUXxX;X! ! N.} } } } } } c.N.c.c.c.v.v.c.v.c.] c.c.c.c.c.v.x.c.c.c.c.c.c.c.c.c.c.c.c.c.x.} c.v.v.c.V.c.N.c.V.c.v.} x.V.c.x.} N.] N.N.} } ~.xXAXUXUXUX",
"UXUX_.R X $ q 4 4 4 8 q 4 4 # & < 2 1 5 7 1 1 & 5 4 = 1 5 < & 5 < & & 1 5 * < 5 & & 5 - # = 1 & 5 @ 1 $ 1 & & & 5 - 5 5 5 & 4 4 @ 9 c 6 : : H :XUXUXUX",
"UXUXR q M H h 7 7 f D h h F * g a p a a a d d j g s p a N - g B p p j g s s g s s g B j s d g p N p N w F p a r j j d - h - F F p 7 & 7 h 9 , R UXUXUX",
"UXUXA q M 0 i n F 7 5 * - F p a d d a r e t d l r y r t a % l r t y d d r r t r d a r t d B r r d a l r V r t t z t r e K r r - - J F L 7 H 8 3 UXUXUX",
"UXUXQ W .X5X5X4X4Xn.I N j <.y.u.u.w.e.e.e.e.w.p.:.g.u.2.e.;.u.w.e.y.w.w.u.u.w.w.u.p.2.>.e.u.w.w.>.>.y.e.w.w.2.2.e.w.w.C.|.-.y r 0.}.}.5X}.(.H A UXUXUX",
"UXUXq D (.|.}.uXuXz.- % = &.b.y.;.>.e.g.h.7.,.e.:.J.A.>.j.u.;.e.t.w.;.w.g.g.;.>.>.e.e.w.;.w.A.A.w.g.u.D.e.A.D.*.e.w.>.A.+X:.= % 1.^.E.8XxXfXE A UXUXUX",
"UXUXD s 1.p.tX8XxXy.- a y p.{.b.y.i.A.E.I.k.6.p.i. XE.r.W.U.4.P.D.i.4.a.T.I.e.p.w.p.U.F.r.A. XD.w.F.s.E.p.E.].;.A.A.p.p.tX<.e p B y.D.5X7X7XQ c UXUXUX",
"UXUXD F 1.e.U._.fXv.- e e u.G.0.Y.0X Xm.M.i.a.OXF.4.q.Y.0X.X4.P.s.P..X XM.a.).d.Q.XX7XW.i.v.U.q./.9X.Xi.U i.0.n.G.R.OX0XiXI 7 f P 9.i.W.{.rXF 8 UXUXUX",
"UXUX9 B y.F.W.V.sXv.y d k |.iX6XeXfXwX5X0X5XXX6X5X7X7X7XcXhX7X7X9XgXgXgXtX6XuX5X7X9XgX9X4X4X6XwX5XwXcX9XhXgX5XdXyXtXtXtXrXT 7 2 P M.k.P.E.9XQ 8 UXUXUX",
"UXUX9 s y.t.i.M.fXn.% t e 2.^.^.B._.Y.Y.(.^.^.^.Y.^.^.Y.D.P.U.m.Y.Y.G.Y.L.E.L.^.Y.G.G.^.^.^.^.^.G.Y.^.G.G.Y.E.L.L.G.T.H.G.3.i i J q.s.4.I.9XF 8 UXUXUX",
"UXUXA s p.p.*.M.gX0.; l e l k u # 4 4 & & 1 1 i u = u i a * p j j p u a u * w * p u * u u u i i 1 * i i p p a f y ; y y p n 2 g F y.F.Z E.rXF c UXUXUX",
"UXUX9 s D.E.A.M.9Xq.e C w t = p 7 n H 7 2 n n i g g i u * * g s p w f m g i m 1 a n n i i i i i n n g i u p f 7 0 % ; % * m n 1 J E.{.4.Q.rXL 8 UXUXUX",
"UXUX9 s S.I.r.s.9Xi.% ; w &.k g f 1 n n g m i 7 n m m m h h B 0 g F j g 1 u J g f f f f n i n n n f u f f f n n F s B B V f i i B D.P.Z E.0XQ 8 UXUXUX",
"UXUXD 0 i.A.$.F.9Xi.r w P }.}.}.4X(.}.}.4X6X^.7 7 1.).}..X`.`..X.X4X).B.f n V.5X.X)..X4X4X4X4X).c.# n (.8X.X).4X4X(.}.{.(.m n m a M.4.*.W.9XD c UXUXUX",
"UXUXB s D.{.D.R.rXb.- 1 1.uX8X6XrX6XhX9XtXcXW.; q m.gXgX7X0X0XcX7X0XcXY.$ ; ^.yXwX7XgXyX7XeXwXuXV.$ B /.0X0XqXsXwX7XcXcXrXJ i f J /.E.P.{.hXG 8 UXUXUX",
"UXUXA s -.p.iX0XyXv.h 5 z.wXV.M./.rX9X XhX9XQ.; = U..Xq.M..X9X0X`.cXcXi.; $ /.|.q.P.0X9X5X8X8XrXi.$ B (.Q.i.Y.wXeX7XoX0XoXP 1 u P 4.P.hXoX5XE c UXUXUX",
"UXUXA N i.A.{.oXqXV.6 : R _.V.1.P.oXoX'.Q.0X{.y = b.{.=.! /.oX.XP..XtXa.y ; L.T.4.9.}.tX(.Y.6XtXd.; B W.M.4.i.4XeX).Y.0X8XI i j =.;.a. X0XgXG c UXUXUX",
"UXUX9 y ;.g.r.R.8XV., c ` ` c V.'.9X Xd.Q.9XQ.y e S.^.1.4.W.9X/.4.E.rXb.e % H.S.9.4.OXhXE.y.dXuXw.% B ].A.9.y.eXxXY.q..XrXg g = J r.k.d.W.qXD c UXUXUX",
"UXUXD s b.].D.0.wX} S #X,X*X` 3 v.gX.XL '.cX`.q i G.|.z.9.}.xX).1.^.xXG.1 u ^.S.y.y.}.xXL.<.|.uXy.* w |.S.Z.n.;XlX'.U  XrXj g u I A.{.8.U.qXE c UXUXUX",
"UXUXH B i.R.A.M.cXA K.DXHXGX,XA } 4X).E | ;X_.6 i z.B.z.W B..X_.E V.6Xz.2 i B.V.x.n.|.4XG.c.L.4Xz.7 v B.z.3.W ;XeX'.d.(.tXj * m V p.].s.Q.fXG c UXUXUX",
"UXUX9 0 -.6.Z M.;X8 :XJXKXJXbXS A ! ` v S [ / S v { ` R Y R } R Y { | v b Y Y Y v v ` { S S S | Y v v ' Y S R Q R M U Q.tX&.a p V 4.s.Z U.qXA 8 UXUXUX",
"UXUXM N b.j.T.m.).3 >XJXJXJXVX~ #XpXsXpXpX1XVXIX1XaX,XaX<X,X,X<XjXaXaX,XmXbXaXkXjXaXaXpXjXjXbX1X1X,XjXaXaXaXjXpX_.Q q./.9Xj u u K i.a.a.^.qXR c UXUXUX",
"UXUX9 s <.j.oXXX4XA $XNXKXKX2Xo kXHXHXJXJXKXJXJXJXJXKXJXJXKXKXKXKXKXKXKXJXJXJXKXJXJXKXJXJXKXKXKXJXKXJXKXHXHXHXGXpXQ ! (.9Xf m j V 4.I.oX.X9XH M UXUXUX",
"UXUXA 0 0.a.tXyX;XA $X=XLX<X3X( =XBXmXMXBXBXVXBXBXNXNXNXBXNXNXFXNXNXNXNXFXNXNXNXBXFXbXBXNXFXNXNXFXFXNXNXNXBXBXkX=XQ } Y.7XL i u %.i.F.tX9X7XD 8 UXUXUX",
"UXUXB s b.t.R.yX`.A *X=XJX1X&X .) X.[ X.[ ) X.) ..#.#.....) X........... . .....) X.#.X.) #..... . ...X.#.[ [ ` ~.} } Q.wXm 1 n P ;.5. XoXqXE 8 UXUXUX",
"UXUXD 0 i.;.p.m._.R :X$XFX3X2Xb _ ~.O.O.O.O.O.o.O.@.O.O.o.O.O.o.O.@.@.+.+.@.@.+.o.O.O.+.X.O.@.+.@.@.+.+.o.o.o.K.;X! Q Y.uXm i m r j.s.$.P.cXM 8 UXUXUX",
"UXUXG 0 9.6.F.5X;XA !.{ _ / @XX.#XDXnXlXAXAXkXZXMXZXSXCXCXSXZXCXSXCXCXSXPXSXCXZXMXMXMXAXMXMXMXMXNXBXMXCXlXlXDXAXzXv.q.Y.rXg i w %.>.;.W.oXwXQ 8 UXUXUX",
"UXUXH 0 A.F.E.8XeX8 :XK.x / >X` > Y A A A A A S v v v v v v c v m b b b b Y b b v c c 3 A A x x S S b c M M B A , # 1.S.6Xm g w 1.j.r.{.XXqXE 8 UXUXUX",
"UXUX8 - U.F.g.b.).9 ;XzXjXnXpXv $     $ .   $ @ O : 2 O @ 2 O O 2 + 2 2 + 2 2 + # $ q X X X q # , @ @ @ $ $ $ # $ B a.D.tXm w g a T.P.*.M.cXM 8 UXUXUX",
"UXUX6 0 m.e.F.6XwXq 6 !.zX;XY   W n.U E L B.V.4 2 J T k P 2.<.F m m Z.z.O n m m Q Z d.U Z B W B.H & h P U C V m.U C :.l.iX%.w i Z 4.4. X.XwXE 8 UXUXUX",
"UXUXH F y.w.+XyX5XW $ , O   @ @ ^.].n.i.i..X).r g <.S.y.b.].{.u.Z.S.6XH.w g z.Z.r.a.{.T.s.;.D.fXb.* V b.p.e.p..XE.;.5.l.tXr l w K 9.a.oXcX0XQ c UXUXUX",
"UXUXD N y.g.J.XXqX1.# q   < % =.H.T.w.6.9.{.(.e t P u.e.;.{.A.4.2.2.XXH.= g &.Z.5.f.].8.8.*.g.6Xy.% j 2.u.6.p.|.i.w.5.k.XXC a w k a.6. XXXqXD c UXUXUX",
"UXUX6 ; -.t.F.{.uXv.< 4 5 W =.<.H.J.7.>.6.{./.% t %.u.e.>.].j.5.2.w.XXS.e g >.e.,.f.[.8.8.5.s.rXb.* d <.y.w.w.{.y.6.5.k.+XC i m l w.s.M.W.qXE 8 UXUXUX",
"UXUX9 B F.T.E.H.gXm.; 5 J b.2.2.J.J.,.6.6./.{.e y K t.w.5.T.k.5.w.e.XXS.e g &.f.7.f.[.8.t.5.r.tXn.% 5 =.y.i.p.^.w.6.*.k.+XC u u V F.W.k. XcXH 8 UXUXUX",
"UXUXA N i.t.w.A.yXm.1 * J b.>.,.l.h.f.,.4.{./.; y K r.r.6.P.s.5.>.2.OXS.= a =.f.5.f.l.8.8.4.0.6X1.5 n v.n.1.i.E.q.8.5.k.tXK i w J p.s.4.E.uXD 8 UXUXUX",
"UXUXD B -.w.F.G.8Xn.* p V u.2.7.h.f.,.f.;./.(.* a C p.w.6.k.t.5.2.2.XXG.= t &.e.7.f.l.5.r.i.n.fXB.6 v Y E z.B.G.w.r.5.j.+Xk i i P q.4.P.Q.yXQ 8 UXUXUX",
"UXUXH B y.].hX{.uXn.- 0 k u.Z.,.f.f.,.f.4.Q.(.* a K p.w.t.w.t.6.7.>.6XZ.w g &.Z.,.t.k.6.r.i.q.v.v + , 2 > : 9 n.-.s.5.s.oXJ u 5 I a.].hX{.8XG 9 UXUXUX",
"UXUXA y 1.J.OX|.iXb.- p l 2.2.f.f.f.7.t.-.^.(.w a I u.w.p.6.h.7.e.>.OXS.= g &.h.,.7.a.4.r.W F @ Y K.:XpX*X| 3 H V 4.4.r.XXJ 7 f J w.Q. XE.yXF 8 UXUXUX",
"UXUXA B y.7.6.M.6Xb.* r V p.,.,.f.f.8.p.-.Y.).- a K u.2.g.>.t.t.e.;.OXS.* g &.Z.,.7.e.9.-.Q , ` :XDXJXKXGXjX~.q 0 q.! d.oXF 5 5 I ;.a.5.P.gXD 9 UXUXUX",
"UXUXD - F.tXg.m.yXm.; r V y.e.7.7.7.6.t.-.^.).p u %.2.u.e.7.e.7.e.;.|.G.% f =.>.h.7.9.M.H > o.#XVXJXJXJXHXDX=X~.x M ! N. XU w a C D.+X*.Q.gXH 8 UXUXUX",
"UXUXD B i.A.6.M.8Xn.% r V u.e.7.8.7.5.r.1.^.|.* r %.u.e.,.7.7.7.e.;.OXS.% p =.h.7.6.r.W @ / >X&XbXJXJXLXHXHX$X,XO.x Q '..XP * w $.g.k.*.E.fXD 8 UXUXUX",
"UXUX4 N i.6.I.S.9Xn.= p V w.2.f.7.8.6.r.-.Y.).r a %.2.u.e.e.7.e.f.>.|.S.% f =.h.,.8.i.U $ !.CX2X&XVXKXKXKX,X@XkXjXX 3 '..XI u r Z 8.5.I.U.wXR 8 UXUXUX",
"UXUX4 N y.t.E.F.yXb.% r k w.7.7.7.7.6.t.;.Y.).w r %.u.h.e.f.7.7.e.;.|.S.% p =.,.,.j.9.Q q :XmX&XvXvX2XvX2X@X%X3XGXA q v.}.J i g C 7.t.Q.U.wXE 8 UXUXUX",
"UXUXH B -.p.*.M.rXb.* p C 2.7.7.7.7.5.t.;.H.|.w r %.2.u.6.e.7.6.f.;.|.C.* p &.e.7.g.y.F # ;XMX#.JXKXvX&X&X2X@X+.DXS 3 V..XJ u u K t.5.$.P.fXH 8 UXUXUX",
"UXUXH s ;.R.>.i.8Xb.% t l e.h.7.8.7.5.e.;.H.^.w r %.u.u.e.7.7.7.u.;.|.C.% s =.g.,.e.r.Q $ !.GX) 3XFXvX&X%X@.^ 1XZXA 5 q.}.P u i C t.I.*.U.gXH 8 UXUXUX",
"UXUXA 0 a.{.T.A.rXb.% w k u.f.5.,.f.7.7.;.H.].w r %.u.e.7.e.7.7.f.;.|.b.* a &.e.,.,.i.9.: | DX>Xo ( (  .) o o.LX-Xc v z.}.3.n g j t. XF.Q.qXG 8 UXUXUX",
"UXUXD s i.g.j.E.hXC.= r V u.w.7.7.7.5.8.,.J.].u u %.2.h.7.e.7.6.h.;.{.C.* a &.e.h.6.y.q.4 3 !.GXFX . .( ^ 3XLXkXY q W V.}.I i i %.u.A.a./.gXB c UXUXUX",
"UXUXH B -.A.XXtXuX<.r - j p.u.7.7.5.5.f.e.j.].w t %.2.u.7.e.7.7.e.2.T.S.r f =.e.7.>.r.s.Q 3 c o.vXFXVXVXLXbX!./ , R 1.0.}.P i g k w.D.+X9X9XG 8 UXUXUX",
"UXUX9 s 9.F.|..XfXb.g r j u.2.e.8.7.7.e.6.C.].e u %.u.u.6.7.7.7.e.>.T.C.* p &.e.f.e.e.i.9.D , > / [ X.X.#./ b b @ E q.q.}.T i i I u.j. XXX0XH 8 UXUXUX",
"UXUXA B ;.;.t.E.6Xv.- 0 F b.y.w.t.8.8.8.7.g.R.w w %.2.e.e.7.7.7.e.>.T.S.* 5 &.e.7.7.6.r.i.L   c b b S S S b x @ : q.i.;.|.m i i P <.Z j.W.0XE 8 UXUXUX",
"UXUX8 s i.I.{.OXyXn.& h F n.w.w.t.8.6.7.f.A.].t t %.u.u.e.e.7.7.e.>.T.S.e f =.u.,.>.,.,.p.-.$ @ 2 + + > > > X $ 0 r.r.*.^.&.i u m S.U.{.oXyXH 8 UXUXUX",
"UXUX9 B y.E.0X7XxXV.7 n h v.n.i.i.6.5.6.h.Z.H.t r %.2.h.7.7.7.e.7.>.H.C.% p =.g.,.f.f.7.t.w.N $ 2 2 2 + , , q - U r.r.*.].m i i k C.{.oX8XgXH 8 UXUXUX",
"UXUXG N -.e.T.^.9X0.# 6 6 L W y.i.w.>.7.w.g.H.w w K 2.w.>.7.,.7.e.>.H.b.% u &.h.,.,.f.7.7.6.<.* 2 O 2 @ O O = I 4.8.5.,.^.&.i m g <.a.E.{.9XE 8 UXUXUX",
"UXUX9 B w.F.].Y.wX} 6 W z.1.h U i.r.w.e.w.g.H.w t %.u.e.e.7.7.e.e.>.H.b.w a 3.f.f.7.f.8.7.6.e.0.i = = 2 @ u N ;.s.5.,.,.R.I i g m b.F.U./.8XH c UXUXUX",
"UXUX9 N i.t.p.M.eXc.W eXSXzXB.n 9.s.M.i.w.A.^.p h P b.b.p.p.i.b.p.<.E.m.1 h 1.u.A.p.w.h.a.e.b.^.z.i 2 i m 3.Z.z.M.5.5.5.T.C a u l Z.u.r.U.8XG c UXUXUX",
"UXUXH s <.D.-.B.4XA !.HXGXJXaXb A ! Q E G W v.: 6 n G E W E W W R W c.W 2 : H E E Q E E E E R N.Y x 6 Y ' ] Y ] U U r.4.I.K t w %.h.h.5.E.6XG c UXUXUX",
"UXUXA - G.OXb.v.;XA :XJXKXJXMX/ ` | R W ] ' ' ] ] ' ] ' ' ' ] ] ` ] } ' R ` ' ' ' ' ' } ' ' ' ' ' ` ` ` ' | ] z.W U q.9.R.%.e l %.I.].r.U.uXW c UXUXUX",
"UXUX9 5 n.H.9.m.4XA >XGXJXJXbX/ !.AXlXjXnXnXlXZXAXCXnXnXnXnXCXnXCXCXlXnXAXZXnXnXMXnXMXkXnXnXnXkXnXZXZXCXCXmXCXlX*XE 9.9.H.%.w i t k.F.:.Y.uXH c UXUXUX",
"UXUXD B p.C.;.Y.).3 *XIXKXVX3X^ 3XHXHXHXJXJXJXKXHXHXHXHXHXHXJXJXJXHXGXHXJXHXHXHXHXHXHXHXHXHXJXJXJXKXKXJXKXKXKXKXsXW 1.n.G.m g i m F.t.*.E.xXH c UXUXUX",
"UXUX9 B S.E.T.(.;Xn #X=XKX2X3X[ ~.1X,X1X1XvX2XvX<X<X<X1X1X1X1X1X1X1X<X<X<X<X<X1X<X<X<X<X<X<X<XvX<X1X1XvXvXvX1X>X_.T z.Z.G.m i i &.T.D.E./.wXY c UXUXUX",
"UXUXM 0 0.T.oX9X4XR *X*XJX2X2X^ S _ ^ ( ( )  .( ~ ( _ ~ _ ~ ~ ~ ~ ~ _ _ ~ ^ _ ~ ~ ~ ~ ~ ~ ~ ~ ~ ~ _ ( ( ( ^ / [ K.z.z.z.S.3.i i l i.E.hX6X6XY c UXUXUX",
"UXUXN B <.p.OXoX).8 !.K.2X+.&X/ o.*X#X@X&X&X&X@X$X$X%X$X$X%X%X%X$X%X%X%X@X&X$X$X&X$X$X&X$X$X%X@X%X%X%X&X#X&X&X!.eXz.2.z.S.&.i m p w.F.0X9XfXG c UXUXUX",
"UXUX; B r.;.r.Y.`.A -XS o ^ %X[ !.CXlXlXaXmXIXmXmXmXmXkXkXlXlXjXkXjXaXkXmXmXmXmXkXjXkXkXkXkXkXnXmXjXjXbXkXbXlXlXwXL W n.S.I 1 f k F.*.5.P.gXH c UXUXUX",
"UXUXM 0 9.oXD.m.;Xv pX*X/ K.sX' 2 @ 5 4 , , , x > 2 > > > 3 , 3 3 3 , , v x X > > 3 X 3 > > > 3 x x > x > > 2 2 # ; r.r.F.B a j j a.oXd.'.0XE A UXUXUX",
"UXUXM M b./.<.m.;X@ K.sXLXZX*XO O = = = = < 2 @ + : < # # # $ $ @ # @ @ O @ @ # # # q # @ # # & $   $ < : @ : < ; ; r.4.A.d p * j s.W.d.Q.gX9 8 UXUXUX",
"UXUXB B G.H.i.B.wXH + { N.N.2 = C ;.$.$.=.=.1.a i m P =.U =.-.:.=.=.1.I u f J =.=.:.U 1.=.&.&.=.J r p P =.&.T P U U s.5.p.V d r :.F.k.8.I.gXH A UXUXUX",
"UXUXD - i.2.E.).uXz.X , X   O l e.j.7.7.h.u.C.a a K u.p.p.u.u.j.2.g.C.;.r a =.Z.p.g.h.h.Z.2.Z.Z.&.t a >.Z.2.b.b.b.t.t.5.h.C a a V a.s.F.E.9XL A UXUXUX",
"UXUXD - y.2.XXuX8Xz.+ v , 2 J =.e.,.,.8.2.;.u.r w I u.u.2.>.>.6.>.w.C.=.e u =.2.2.2.2.2.2.2.e.C.%.e e &.Z.b.2.2.y.6.5.5.t.k u u a 6.F.oXrXfXG 3 UXUXUX",
"UXUXv F n.2.|.6XiXL.2 2 n z.G.C.g.,.f.h.u.y.M.d d %.u.C.p.p.e.p.w.p.C.=.l a =.g.h.g.h.h.Z.h.u.Z.:.t z 2.A.Z.Z.Z.2.h.8.f.u.C i i &.i.p.|.uXdXT x UXUXUX",
"UXUXH g m l %.z 2.m i i z.z.3.<.$.%.*.:.-.1.W p a J &.:.-.;.:.;.:.:.:.C a u j =.:.:.&.&.&.:.=.&.C t z %.=.&.3.3.%.,.*.*.:.k i 1 I P a I 3.z.n v UXUXUX",
"UXUXA : < 0 & r s $ f 6 2 6 : - = 0 y # q 8 # 9 1 7 5 & ; 0 ; q ; 0 q 4 4 5 5 5 - 5 - - - - - 0 t w r 5 5 & f f & ; ; ; - 1 n 2 7 < 1 4 < : v x UXUXUX",
"UXUXUXUXUXUXUXUXUXUXUXUXUXUXUXUXUXUXUXUXUXUXUXUXUXUXUXUXUXUXUXUXUXUXUXUXUXUXUXUXUXUXUXUXUXUXUXUXUXUXUXUXUXUXUXUXUXUXUXUXUXUXUXUXUXUXUXUXUXUXUXUXUXUXUX",
"UXUXUXUXUXUXUXUXUXUXUXUXUXUXUXUXUXUXUXUXUXUXUXUXUXUXUXUXUXUXUXUXUXUXUXUXUXUXUXUXUXUXUXUXUXUXUXUXUXUXUXUXUXUXUXUXUXUXUXUXUXUXUXUXUXUXUXUXUXUXUXUXUXUXUX"
};
