/* XPM */
static char *result[] = {
/* columns rows colors chars-per-pixel */
"75 75 8 1 ",
"  c #684A3C",
". c #795239",
"X c #D82800",
"o c #C23030",
"O c #EB5454",
"+ c #FC9838",
"@ c #DA8145",
"# c None",
/* pixels */
"###########################################################################",
"###########################################################################",
"###########################################################################",
"###########################################################################",
"###########################################################################",
"####################################OOOOOOOO###############################",
"#################################OOOXXXXXXXXO##############################",
"###############################OOXXXXXXXXXX++##############################",
"#############################OOXXXXXXXXXX++++##############################",
"############################OOXXXXXXXXXX+++++##############################",
"############################OXXXXXXXXXo@@@@@@##############################",
"###########################OOXXXXXXXXooXXXXXXOOO###########################",
"###########################OXXXXXXXXXoXXXXXXXXXXO##########################",
"###########################     @@@@@  @ @@@@##############################",
"##########################  .....++@@..+.@@@@##############################",
"#########################...+@...++++....@@++++++##########################",
"#########################..@++...@++++..++++++++++#########################",
"########################...+@+@...+++++++++++++++++########################",
"########################...++@+...+++++++@+++++++++########################",
"########################...++@+.. ++++++@ @+++++++@########################",
"########################...@+@@  @+++++@.. @@++++@#########################",
"########################...@@@@@@++++ .....  @@@@##########################",
"#########################.. @@@@@++++@ .....     ##########################",
"#########################...  @@@@++@@@  ..  ....##########################",
"##########################..   @@@@@@@@@@  @@   ###########################",
"###########################..  @@@@@@@@@@@@@@@@############################",
"##########################..   @@@@@@@@@@@@@@@#############################",
"###########################    @@@@@@@@@@@@@###############################",
"############################ ooo@@@@@@@@@o#################################",
"############################o  oo @@@@@@ oo ###############################",
"############################   XX        XX   #############################",
"###########################    XX        XX    ############################",
"##########################     XX.      .XX     ###########################",
"#########################      OX........XX      ##########################",
"######################## ....  OX........OX  .... #########################",
"#######################....... OX........OX .......########################",
"#######################....... OX........OX .......########################",
"######################........XXX........OXX........#######################",
"######################........OXX........XXX........#######################",
"#####################........ OXX........XXX.........######################",
"#####################........XXXXX......XXXX.........######################",
"#####################........OXXXXXXXXXXXXXXX........######################",
"#####################....... OX++XXXXXXXX++XX .......######################",
"#####################....... X++++XXXXXX++++X .......######################",
"#####################.@@++@@ X@++@XXXXXX@++@X @@++@@.######################",
"#####################@++++++@XX@@XXXXXXXX@@XX@++++++@######################",
"#####################++++++++@XXXXXXXXXXXXXX@++++++++######################",
"#####################++++++++@XXXXXXXXXXXXXX@++++++++######################",
"#####################++++@+@+@XXXXXXXXXXXXXX@+@+@++++######################",
"#####################@+@+@+@+@XXXXXXXXXXXXXX@+@+@+@+@######################",
"######################+@+@+o@oooooXXXXXXXoooo@o+@+@+#######################",
"######################@@+@@oooooooooooooooooooo@@+@@#######################",
"#######################@@@oooooooooooooooooooooo@@@########################",
"#########################oooooooooooooooooooooooo##########################",
"########################oooooooooooooooooooooooooo#########################",
"########################ooooooooooo####ooooooooooo#########################",
"#######################ooooooooooo######ooooooooooo########################",
"#######################ooooooooooo######ooooooooooo########################",
"#######################oooooooooo########oooooooooo########################",
"########################ooooooooo########ooooooooo#########################",
"########################ooooooooo########ooooooooo#########################",
"######################### oooooo ######## oooooo ##########################",
"#########################        ########        ##########################",
"#########################.       ########       .##########################",
"#########################....    ########    ....##########################",
"#######################......    ########    ......########################",
"######################......     ########     ......#######################",
"#####################.           ########           .######################",
"#####################.......     ########     .......######################",
"###########################################################################",
"###########################################################################",
"###########################################################################",
"###########################################################################",
"###########################################################################",
"###########################################################################"
};
