/* XPM */
static char *result[] = {
/* columns rows colors chars-per-pixel */
"75 75 178 2 ",
"   c #3C3425",
".  c #3F3827",
"X  c #423726",
"o  c #4B3727",
"O  c #413827",
"+  c #4C3827",
"@  c #433B2A",
"#  c #4D3B29",
"$  c #543A29",
"%  c #5D3C2C",
"&  c #603F27",
"*  c #653F2D",
"=  c #683F2E",
"-  c #4C422E",
";  c #53422F",
":  c #5B412F",
">  c #4E4430",
",  c #554532",
"<  c #5A4532",
"1  c #5E4A36",
"2  c #5F4D39",
"3  c #6B4227",
"4  c #60422F",
"5  c #6B402E",
"6  c #75432F",
"7  c #7C442F",
"8  c #784624",
"9  c #634632",
"0  c #6D4532",
"q  c #624B37",
"w  c #6B4A36",
"e  c #634D39",
"r  c #694F3B",
"t  c #764330",
"y  c #7E4531",
"u  c #744935",
"i  c #7A4A35",
"p  c #704F3B",
"a  c #7B4C38",
"s  c #6C513C",
"d  c #70533E",
"f  c #7B523E",
"g  c #775641",
"h  c #785642",
"j  c #7E5944",
"k  c #91481C",
"l  c #9B4919",
"z  c #AD4C1C",
"x  c #BD4A16",
"c  c #B4491D",
"v  c #B9491A",
"b  c #BE521D",
"n  c #884627",
"m  c #844820",
"M  c #8E4826",
"N  c #8F482F",
"B  c #9C4B20",
"V  c #90482F",
"C  c #9C4A2D",
"Z  c #834733",
"A  c #884733",
"S  c #854935",
"D  c #8D4934",
"F  c #874F3A",
"G  c #8B4E39",
"H  c #954A31",
"J  c #994B32",
"K  c #944F39",
"L  c #994F39",
"P  c #81533E",
"I  c #8B533E",
"U  c #93513C",
"Y  c #99523C",
"T  c #A64927",
"R  c #AA4924",
"E  c #A34A29",
"W  c #AB4F2A",
"Q  c #B04920",
"!  c #BD5223",
"~  c #B3532C",
"^  c #BA532A",
"/  c #BD582C",
"(  c #A24E31",
")  c #A55337",
"_  c #AA5435",
"`  c #A4553A",
"'  c #AC5739",
"]  c #A8583D",
"[  c #B65733",
"{  c #BD5B34",
"}  c #B55A3A",
"|  c #BB5C39",
" . c #BD613E",
".. c #C64C0E",
"X. c #C84C0C",
"o. c #C24B12",
"O. c #C84E10",
"+. c #CB5316",
"@. c #C7541D",
"#. c #CB561C",
"$. c #C55217",
"%. c #C35522",
"&. c #C65823",
"*. c #CC5B24",
"=. c #C65C2B",
"-. c #D15F27",
";. c #C35D32",
":. c #CF612D",
">. c #C56035",
",. c #C4653D",
"<. c #D56834",
"1. c #D36632",
"2. c #8A5641",
"3. c #825B46",
"4. c #8D5843",
"5. c #8C5F4A",
"6. c #845540",
"7. c #9B5741",
"8. c #9A5A43",
"9. c #925944",
"0. c #A45A43",
"q. c #AA5D44",
"w. c #A45D48",
"e. c #A85F48",
"r. c #B55F42",
"t. c #8C604A",
"y. c #84604C",
"u. c #93624D",
"i. c #9C654E",
"p. c #9C6651",
"a. c #AC644B",
"s. c #A3634E",
"d. c #BD6444",
"f. c #BD6846",
"g. c #B6664B",
"h. c #B9674B",
"j. c #B36A4F",
"k. c #BC6A4C",
"l. c #B26347",
"z. c #A66A54",
"x. c #AA6C56",
"c. c #AD6E58",
"v. c #B56E55",
"b. c #BC6D52",
"n. c #B16F5A",
"m. c #B96F59",
"M. c #AE705B",
"N. c #B67057",
"B. c #B5715A",
"V. c #BE725A",
"C. c #AA7D6C",
"Z. c #BA7B68",
"A. c #C36641",
"S. c #C06846",
"D. c #C36D4D",
"F. c #CC6F4A",
"G. c #C16D51",
"H. c #C67151",
"J. c #C37259",
"K. c #CC7352",
"L. c #C27761",
"P. c #C57A63",
"I. c #CE7F65",
"U. c #DA805D",
"Y. c #CE8169",
"T. c #DD8768",
"R. c #CF8773",
"E. c #E68E6D",
"W. c #E79376",
"Q. c #EB987C",
"!. c #DA9A8A",
"~. c #E49984",
"^. c #E7A293",
"/. c #F0A794",
"(. c #F4AD9A",
"). c #F6B4A7",
"_. c #FCBCB0",
"`. c None",
/* pixels */
"_._._._._._._._._._._._._._._._._._._._._._._._._._._._.(.Q.<.#.`.`.`.`.`._._._._._._._._._._._._._._._._._._._._._._._._._._._._.(.E.-.#.`.`.`.`.`.`.",
"_._._._._._._._._._._._._._._._._._._._._._._._._._._._.).Q.<.#.`.`.`.`.`._._._._._._._._._._._._._._._._._._._._._._._._._._._._.(.E.-.+.`.`.`.`.`.`.",
").).).).).).).).).).).).).).).).).).).).).).).).).).).).(.W.1.@.`.`.`.`.`.).).).).).).).).).).).).).).).).).).).).).).).).).).).).^.E.:.$.`.`.`.`.`.`.",
"^.^.^.^.^.^.^.^.^.^.^.^.^.^.^.^.^.^.^.^.^.^.^.^.^.^.^.^.~.T.:.b l `.`.`.C.!.^.^.^.^.^.^.^.^.^.^.^.^.^.^.^.^.^.^.^.^.^.^.^.^.^.^.^.Q.U.*.b k `.`.`.`.`.",
"R.R.R.R.R.R.R.R.R.R.R.R.R.R.R.R.R.R.R.R.R.R.R.R.R.R.R.R.I.K.&.z m - > 2 y.Z.R.R.R.R.R.R.R.R.R.R.R.R.R.R.R.R.R.R.R.R.R.R.R.R.R.R.R.Y.F.@.z 8 > > > > > ",
"P.P.J.H.H.K.H.F.H.H.H.D.H.H.H.H.H.K.H.H.H.H.H.H.H.J.H.K.D.A.! z 8 - - 1 h M.V.J.H.K.H.H.H.H.H.G.J.K.K.K.H.H.H.K.H.H.H.D.J.H.H.K.H.D.>.b B 3 @ > > > > ",
"L.J.A.>.=.>.=.>.:.=.=.>.>.=.>.:.=.=.=.;.;.=.=.=.;.=.=.=.=./ W M 3 . - , h x.b.,.=.=.=.=.;.=.;.=.;.=.;.=.=.=.;.=.:.=.=.>.:.=.=.>.=./ / T n 4 @ # - > > ",
"L.D.=.O.X.X.X.X.X.X.X.X.X.X.X.X.X.X.O.X.X.X.X...X.X.O.X.O.c C 7 $   @ , h x.f.=.O.X.O.X.X.X.X...X.X.X.X...X.X.X.....X.X...X.X.X.X...z C 6 $   @ - > > ",
"L.G.;.o.o.o.o.o.x x x x ..x x X.o.o.o.o.o.o.o.o.o.o.x o.x c E A $   . , h x.h.=.o.o.o.o.o.o.o.o.o.o.o.o.o...o.o.x x x x ..x ..x o.v R J 6 $   @ # > > ",
"L.G.| v v x x x x x x v x x x x o.o.v v v x x v v x x x v R C = %   @ , h x.h.{ x v x x x x x x x x v v v x v v x x x x x v x x o.v R J = $   @ > > > ",
"L.G.| v v v ! v v v v v v v v v Q v v v v v v v v v v v c R H Z $   @ , h x.h./ v c c v v ! v v v v v v v v v v v v v v v v v v v Q T J y $   @ > > > ",
"L.G.| v v v v v v v v v v v v v v v v v v v v v v v v v c R H y %   @ , h x.h.[ v v v v v v v v v v v v v v v v v v v v v v v v v Q T H t $   @ # > > ",
"m.h.| Q Q Q Q Q c Q c c z z c c Q Q Q Q Q Q Q Q c Q Q c R T J y $   @ , g z.l.[ Q Q Q c Q Q Q Q Q Q Q c Q Q Q Q Q Q c c z c z c Q R T H t $   . - > > ",
"a.q._ E T R R T T T T T E T T T T T R T T T R R T T T T T E H t $   . , d 9.0.) T R T T T R T T T T T T T R R T T T T T T T T T T T C H t #   - - > > ",
"7.7.K H C H H H N H H H H H N N H H H ( J H J J J C N H N N D t $   . ; w F K H H H N H H H N C H ( V H H H H C H N H H N H H N N N D D 0 $   . - > > ",
"= = y = = Z = t y = t 6 t t t t y y = = y = = t t = y = t t t * $   @ - < 0 t t t t t t t t t = = = y = Z = y = Z = t t t t t t t t t t * o . . - > > ",
"* % $ $ $ $ $ $ $ $ $ $ $ $ $ $ $ $ $ $ $ $ $ $ $ $ $ $ $ $ $ # X   . - ; $ $ $ $ $ $ + $ $ $ $ * $ $ $ $ $ $ $ $ $ $ $ $ $ $ $ $ $ $ $ # X   @ > > > ",
"X X @ @ O O X X X X X X X X X X X X X X X X X X X . X X X X X . .   @ @ # @ O X X X X . X X @ @ X X X X X . X X X X X X X X X X O . O X X   @ @ > > > ",
"X @ @ @ @ @ @ @ @ @ @ @ @ @ @ @ @ @ @ @ @ @ @ @ @ @ @ @ @ @ @ @ @ @ @ > > @ @ @ @ @ @ @ @ @ . . @ @ X o . @ @ @ @ @ @ @ @ @ @ @ @ @ O @ O @ @ @ > > > ",
"# # # > > # > # - - - - - - - - - - - - - - - - > > # > - > # > - > > > > > - > - - - > - - - - > > # > > > > > - - - - - - - - > # > > # > > > > > > ",
"d d d d g g g g s d d r 9 < , - > , e s d d d d g g r s g g g g s s d d d d d d d d d d d d d g e 1 < , > > , e d d d d d d d d g r g p g g g w 1 < 9 ",
"p.p.p.p.p.p.u.5.i.i.i.I a 0 , , > 1 h u.i.i.i.i.p.s.p.i.9.i.5.s.p.i.i.i.p.s.i.i.i.i.i.i.p.p.i.8.6.i 9 , > > q j p.p.p.i.i.i.i.i.p.s.i.p.5.p.9.2.a y i ",
"L.J.J.J.J.J.J.J.H.J.b.e.G i < > > 2 t.B.J.J.J.J.J.J.J.L.J.J.J.J.J.J.J.J.J.J.J.J.J.J.J.J.J.J.J.b.w.G t , - > r u.V.J.J.J.J.J.J.J.L.J.J.L.J.J.b.0.L D G ",
"L.J.D.>.;.,.;.;.>.>. .' D t ; # - 2 t.B.H.,.>.>.,.;.;.;.;.;.;.;.>.>.>.>.>.>.;.>.>.>.>.;.>.>.;.{ ) D 0 $ @ > s u.V.G.,.>.;.>.>.>.;.;.;.;.;.;.{ ) H K D ",
"L.G.>.#.@.@.@.@.@.@.$.R H t $ X - 1 y.N.A.=.#.@.@.@.@.@.o.@.@.@.@.@.@.@.$.@.@.@.$.@.@.@.@.@.$.v E D = # @ # r u.V.A.=.$.$.#.#.@.+.@.+.@.+.@.%.E D D D ",
"L.G.;.O...X.X.X.X.X.o.R H = # X - 1 5.N.,.&.X.X.X.X.X.X.X.X.X.X.X.X.X.X.X.X.X.X.X.X...X.X.X.X.x E D = # . # r u.J.,.@.X.X.X.X...X.X.........x R J K D ",
"L.D.=.O.....X.O.X.X.o.R V = # O @ q 5.v.,.%.X.O.X.X.X.X.X.X.X.X.X.X.X...X.X.X.X.....X.X.X.X.X.x T D * # . @ 2 5.V.>.@...X...X.X...X.X.X.....o.R J D D ",
"L.G.;.O.......o.....o.R H = # O - q 5.N.A.%.O.o.......X.................................X.....x T D * # . > g u.V.>.@.o...........o.........x R J D D ",
"L.D.| o.o.x o.o.x x v R N = # O @ q t.m.A.%.o.o.x o.x o.x o.x x x o.x x x x x o.o.o.x x x x x c E N 4 + . @ g 5.Z.;.! x x x x x v o.v o.o.o.Q E J K D ",
"L.G.;.v v v v x v x c E H = $ O - q 5.m.d.^ v x v v v v v v v v v v v v x v x v v v v x x v x c E A 5 + @ @ g y.m.| ! v v x v x v v v v Q v Q E H D D ",
"L.G.| v v v v v v v c E N = # X @ 2 5.n.d.^ v Q v v v v v v v v v v v c v v v v v v v v c v v c C A 5 o . # g u.J.r.^ v v v v v v v v v o.v Q E H D D ",
"L.b.| v v v v Q v v c E N t + X @ e 5.n.d.^ v v v v v v v v v v v v v v v v v v v c v v v v v z E S 5 o . @ e u.V.;.^ v v v v v v v v v v v Q E H D K ",
"m.g.[ R Q Q Q Q Q R R E D = o O @ 1 4.x.r.~ Q Q Q z c R Q Q Q z c Q R Q Q Q Q Q Q Q Q Q Q Q Q R C A = # . @ r 5.j.} ~ Q Q Q Q Q c R c R c z R C H D D ",
"w.0.) E C C E E E E C H D = $ O @ 1 f 7.` J E E E E C E C C E E C C E E E C E C E E J E C E C E H A = + . > q 6.8.` J E E C C E C E C E C E C J H G D ",
"G D H D D A D D A D D D Z = o O # < w A G D D D A A H A D A D A N N A N N N A A D N D D A D D D A Z * o . @ < u G D D D N D A A D A D A A N D D D D A ",
"= = = = = = = = = = = = = % X @ @ > 9 = = = = = = = = 5 5 = 5 3 = = = = = = = = = = = = = = = = = * $ X . # , 1 = = = = = = = = 5 5 3 5 = = = = = = = ",
"+ $ # # # # + + + + + $ o o O   # > # # # # + + $ # + + # # $ # $ o # $ $ $ o $ # + + + + + + + # # O . O # # # + + # # $ + + $ + $ + # # + + # o $ # ",
"O       . . X   X     X   . . @ - - @ . . . X   . .   X             . @           . O   O . O .       . . - > @ O     . X     . . X .   .   .     . . ",
"# @ # @ @ @ # @ @ @ @ # @ @ @ # # > - @ @ @ # @ @ @ # @ - @ @ - @ @ @ @ @ @ @ # @ @ # @ # @ @ @ # @ @ # - > > @ # @ @ # @ @ @ # @ @ - @ @ @ - @ @ @ @ ",
"2 1 2 2 1 1 2 1 2 1 2 2 1 2 2 1 2 2 2 2 1 1 2 2 q 1 1 2 1 < : ; > > @ > , 1 1 2 1 2 2 1 1 2 1 1 2 1 2 1 2 2 1 1 2 q 1 1 2 1 2 2 1 1 , < ; ; - - > > > ",
"3.3.3.3.3.3.3.3.3.3.3.3.3.3.3.3.j 3.3.3.3.3.3.3.3.3.3.3.6.h p 9 1 > > , 2 g j j 3.3.3.3.3.3.3.3.3.3.3.3.3.3.3.3.3.3.3.3.3.3.3.3.3.j f w 9 < > > > > > ",
"n.c.n.n.n.n.n.n.n.v.n.n.n.n.n.n.c.B.n.n.n.n.n.n.n.n.n.n.x.s.U i 9 > > , g p.x.B.B.c.c.B.n.n.n.n.n.c.v.v.n.n.n.n.n.n.n.n.n.n.n.n.M.x.i.D u 1 - - > > > ",
"Z.J.b.S.S.S.S.S.S.S.S.S.S.S.f.S.k.S.S.S.S.S.S.S.S.S.S.d.d.q.L i 9 @ > 1 h x.m.k.S.S.f.S.S.S.S.S.S.d.S.S.S.S.S.S.f.S.S.S.S.S.S.S.f.d.] K i : - - - > > ",
"J.G.A.=.=.&.=.=.=.&.=.&.&.=.=.&.=.=.=.&.&.=.&.=.=.=.&.%.=.~ J Z % @ @ , h x.k.,.=.=.=.=.=.&.=.&.&.=.=.=.&.=.=.&.=.&.=.&.=.=.&.=.=./ ~ J 7 $ X - - > > ",
"L.D.;.X.X.X.X.X.X.X.X.X.X.X.X.X.X.X.X.X.X.X.X.X.X.X.X.X.o.v E y %   @ , h c.f.=.X.X.X.X.X.X.X.X.O.....X.X.X.X.X.X.X.X.X...X.X.X.X.x c C u $   . - > > ",
"L.D.=.X.X.X.X.X.....X.X.X.X...X.X.X.X.X.X.X.X.X.X.X.X.X.o.v C A $   @ , h c.d.=.X.X.X.X.X.X.X.X.O...X.X.X...X.X...X.X.X.X.X.X.X.X...z C t #   - - > > ",
"L.G.;.......X.X.........X.X.......X...........X.X.X.X.X.o.v C = $   . , h x.h.=.X.......X...........X...........X.X.....X.....X...x c C t +   . - > > ",
"L.D.;.o.o.o.O.o.o...o...o...o.o...o...o.o.o.O.o.o.o.o.o.x c E A %   @ , h x.h.=.o.O.o.o.o...o...o.......o.o...o.o...o...o.o...o.O.x R H t $   . - > > ",
"L.G.;.x o.v o.x x v x x x x x x x x x x x x x x x x x x v R J = $   @ < h x.h.{ x x x x x x x x v o.x x x x x x x x x x x x x x o.Q R J = %   @ # > > ",
"L.G.| v v x v v v v v v v v v v v v v v v v v v v v v v v R J y $   @ , h x.h./ v v v v v v v v v v v v v v v v v v v v v v v v o.Q R J = $   @ > > > ",
"L.G.| v v v v v v v v v v v v v v v v c v v v v v v v v v R J y $   @ , h x.h.[ c v v v v v c v v v v v v v v v v v v v v v v v v Q T H y $   @ # > > ",
"Z.k.| Q Q Q v Q v c c c c c c c c c c c c c c c c c c v Q R J A $   @ , g x.g.[ c c c c v c c c Q v Q v c c c c c c c c c c c c Q Q T H = *   @ > > > ",
"g.q.' R R R R T R T R R R R R R R R R R R R R R T R R R E E H = $   O , p 8.e.[ R R R R R R R R R R T R R R R R R R R R R T R R R T E H t $   @ > > > ",
"0.7.L J C C C J C C C C H C C H C C H C J C J C C C E ( J H H y %   @ ; w 2.Y L J C C J C C C H C H E ( H C H C C H C C C C C C C H H D t $   @ > > > ",
"Z Z = y y y y y y y Z y y Z y y Z y y Z y y y y = y y = y = A = #   @ # < t y Z y Z y y Z 7 Z 7 y = A = y Z y y y y Z y Z Z = A Z y Z t * o   @ - > > ",
"% % = * % % % * % % % % % % % % % % % % % % % % * * * % * % * $ X   @ - , % % % % % % % % % % % % * * * % % * % % % % % % % % % % % % * + X   @ - > > ",
"                                                                    @ - @ .                                         .                         @ > > > ",
". . . @ . X . @ X X . . . . . . . . . . . . . @ . . . @ . . X @ . X @ - - . . . @ @ . . . . @ X . . . . . . . . X X . . . . . . . @ . . . . @ - > > > ",
"- - - ; - - - - # @ # @ > @ @ @ - - - - - > - - - - ; - - - - - # > > , , > > > ; - - - - - - - > @ # - @ - > - # @ # @ > @ > # ; - - - # > > > > > % ",
"e e e e e q q q g % g 2 1 , , , > , , q q e e e e e e e e e e e e e e r q e e q e e e e q e e e 1 1 , > > > > 1 g % g 2 g 2 2 g e e e e q e q 1 1 , % ",
"u.t.u.u.u.u.u.u.u.u.5.6.g 9 % , > 1 d t.u.u.u.u.u.u.u.u.u.u.u.t.u.u.u.u.u.u.u.u.u.u.u.t.u.u.u.t.f u 9 , > > 1 g 5.u.u.9.y.u.u.u.5.u.u.u.u.u.9.6.g = i ",
"B.N.v.v.g.v.v.j.j.j.g.0.S 0 , > > q 3.x.N.j.v.j.j.j.j.j.j.v.j.j.j.j.j.v.v.j.j.j.j.v.j.j.j.j.j.a.7.S 0 < - > q t.n.m.n.j.c.j.j.j.v.g.v.g.j.j.a.7.G Z G ",
"L.J.D.,.,.,.,.,.A.A.r.' K u % @ - q t.B.b.S.,.A.,.,.,.,.,.,.,.,.,.,.,.,.,.,.,.,.,.,.,.,.,.,.,. .` D 0 $ - - s u.J.G.S.,.,.,.A.A.,.A.,.A.S.,. ._ K K D ",
"L.D.,.@.@.%.@.%.@.@.%.W D u # @ @ 2 t.N.S.:.@.#.&.@.@.@.@.@.&.@.@.@.@.&.@.%.@.@.@.@.&.@.@.@.&.! E D 0 # . - s u.J.A.=.@.@.%.@.%.#.%.@.@.%.@.%.( H D D ",
"L.D.>.O.X.O.O.O.O.O.o.R V 6 # o - 1 t.v.A.&.O.O.O.O.X.O.O.O.O.O.......O.O.O.O.O.O.O.O.O.X.....o.T D = $ @ @ g 5.V.,.%.O.O.O.X.O.O.O.O.O.O.O.o.T H D K ",
"L.D.>.X.X.X.X.X.....o.R N 5 # . @ 2 5.N.,.%.X.X.X.X.....X.X.X.X.......X.X.X.....X.X.X.X.....X.o.T D = o . # g u.J.A.@.X.X.X.....X.X.X.X.X.X.o.T H D D ",
"L.D.;...........O.O.o.R V t # X @ 2 5.v.A.%.O.O.X.O.O.O...O.............................o.....x T A = o . @ 2 5.V.;.@.O.X.O...O...O.......X.x T H K K ",
"L.D.;.x o.o.o.o.o.o.x R N 5 + X # q 5.B.d.%.o.o.o.o.o.o.x o.o.o.o.o.o.o.o.o.o.o.o.o.o.o.o.o.o.v E N = o . @ g u.m.;.%...o.o.o.o.o.o.o.x x x x T H D D ",
"L.G. .v v v v v v v v T J = # O - 2 5.n.S.^ v x v v v v v v v x v v v v Q o.Q o.o.v v v %.v v Q E A = # . @ g u.m. .^ v v v v v v x v v x v c E H D D ",
"L.k.| v v v v v v v Q T D = + @ @ 2 5.v.d.^ v v v v v v v v v v v v v v o.Q o.Q v v v v v v v Q ( A = o . @ g u.L.;.^ v v v v v v v v v v v c C H D D ",
"L.G.| v v v v v v v Q E N = + X @ 2 t.v.d.^ v v v v c v v c c v v c c v Q %.Q o.c c v c v v c Q C A = # . @ 2 5.m.r.^ v v v v v v v c c v v c C J K D ",
"V.h.| Q Q c c c Q Q Q E H t + O # 2 5.v.r.^ Q Q c c c Q c c c c c c c c Q Q Q Q c c c c Q c c Q C D = # . @ g 5.m.| ~ c Q Q Q Q Q c c v R c c C D D D ",
"a.q.) T E T E T E T E H D y % @ # w 4.w.q.( E E T E T E T E T E E E E T E E T T T E E E T T E E C A t $ . # s 9.s._ ( T T T E T E E E E T T E H H D D ",
"7.U L H J J H H J H H H D S `.`.`.`.2.7.J J J J H H J J H H H J J J J H H H J J H J J J H H H H H D A `.`.`.`.U Y L J H J J J J J J H C H H H H G D K ",
"D D H G D D D K D K D D K D `.`.`.`.D D D K D D H G D D K D D D D D D K D D D D D D D D D D G K K D G `.`.`.`.D G D K D D D D D G D D D K D G H K D D "
};
